PathFileType        4      (X/Y/Z)      C:\Users\pc\Desktop\IMUTRC\Sujet_03\Sujet_03_velo_100.trc         
DataRate	CameraRate	NumFrames	NumMarkers	Units	OrigDataRate	OrigDataStartFrame	OrigNumFrames
60.0	60.0	4	64	mm	60.0	592	947
Frame#	Time	pHipOrigin			pRightASI			pLeftASI			pRightCSI			pLeftCSI			pRightIschialTub			pLeftIschialTub			pSacrum			pL5SpinalProcess			pL3SpinalProcess			pT12SpinalProcess			pIJ			pT4SpinalProcess			pT8SpinalProcess			pPX			pC7SpinalProcess			pTopOfHead			pRightAuricularis			pLeftAuricularis			pBackOfHead			pRightAcromion			pLeftAcromion			pRightArmLatEpicondyle			pRightArmMedEpicondyle			pLeftArmLatEpicondyle			pLeftArmMedEpicondyle			pRightUlnarStyloid			pRightRadialStyloid			pRightOlecranon			pLeftUlnarStyloid			pLeftRadialStyloid			pLeftOlecranon			pRightTopOfHand			pRightPinky			pRightBallHand			pLeftTopOfHand			pLeftPinky			pLeftBallHand			pRightGreaterTrochanter			pRightKneeLatEpicondyle			pRightKneeMedEpicondyle			pRightPatella			pLeftGreaterTrochanter			pLeftKneeLatEpicondyle			pLeftKneeMedEpicondyle			pLeftPatella			pRightTibialTub			pRightLatMalleolus			pRightMedMalleolus			pLeftTibialTub			pLeftLatMalleolus			pLeftMedMalleolus			pRightHeelFoot			pRightFirstMetatarsal			pRightFifthMetatarsal			pRightPivotFoot			pRightHeelCenter			pRightToe			pLeftHeelFoot			pLeftFirstMetatarsal			pLeftFifthMetatarsal			pLeftPivotFoot			pLeftHeelCenter			pLeftToe			
		X1	Y1	Z1	X2	Y2	Z2	X3	Y3	Z3	X4	Y4	Z4	X5	Y5	Z5	X6	Y6	Z6	X7	Y7	Z7	X8	Y8	Z8	X9	Y9	Z9	X10	Y10	Z10	X11	Y11	Z11	X12	Y12	Z12	X13	Y13	Z13	X14	Y14	Z14	X15	Y15	Z15	X16	Y16	Z16	X17	Y17	Z17	X18	Y18	Z18	X19	Y19	Z19	X20	Y20	Z20	X21	Y21	Z21	X22	Y22	Z22	X23	Y23	Z23	X24	Y24	Z24	X25	Y25	Z25	X26	Y26	Z26	X27	Y27	Z27	X28	Y28	Z28	X29	Y29	Z29	X30	Y30	Z30	X31	Y31	Z31	X32	Y32	Z32	X33	Y33	Z33	X34	Y34	Z34	X35	Y35	Z35	X36	Y36	Z36	X37	Y37	Z37	X38	Y38	Z38	X39	Y39	Z39	X40	Y40	Z40	X41	Y41	Z41	X42	Y42	Z42	X43	Y43	Z43	X44	Y44	Z44	X45	Y45	Z45	X46	Y46	Z46	X47	Y47	Z47	X48	Y48	Z48	X49	Y49	Z49	X50	Y50	Z50	X51	Y51	Z51	X52	Y52	Z52	X53	Y53	Z53	X54	Y54	Z54	X55	Y55	Z55	X56	Y56	Z56	X57	Y57	Z57	X58	Y58	Z58	X59	Y59	Z59	X60	Y60	Z60	X61	Y61	Z61	X62	Y62	Z62	X63	Y63	Z63	X64	Y64	Z64	
592	9.85	0.0	1249.98655	7.653960137173716E-14	96.13509000000002	1335.75357	130.4649300000001	89.91423999999999	1320.25906	-143.54022999999992	70.73331	1412.13171	102.70154000000008	65.60686999999999	1399.34442	-123.43767999999992	-69.06289	1213.35269	60.365230000000075	-71.59731	1206.95904	-52.70437999999992	-59.44363	1289.38523	-0.8640099999999173	4.78083	1376.13146	-7.200049999999916	76.78135	1471.97854	-15.609709999999914	144.00103	1558.72476	-23.78896999999991	414.55017	1582.97454	-36.57625999999993	296.93013	1692.41532	-39.456279999999914	219.45757	1637.11892	-32.198629999999916	311.90623	1503.08276	-26.496189999999924	344.16246	1724.26835	-42.624309999999916	594.20586	1818.79063	-86.63101999999994	526.00697	1765.22224	3.2256200000000756	497.26436	1759.1742	-138.18338999999992	480.38744	1809.28656	-63.13004999999991	349.4617	1733.94522	165.77399000000008	331.25997	1697.13855	-253.4994199999999	433.0399	1443.46634	162.43316000000004	413.39816	1436.72709	105.52396000000006	417.60299	1412.24691	-226.13921999999994	405.3341	1412.18931	-166.81078999999994	515.86929	1201.1414	108.34638000000004	565.34805	1221.70475	113.53041000000005	396.40604	1436.03588	134.09376000000006	516.1573	1177.17963	-181.09569999999994	563.38963	1199.29819	-194.34378999999996	385.28916	1407.06288	-192.55817999999994	698.6354	1092.85263	184.32132	606.64754	1105.58232	147.22665000000003	563.90804	1166.92676	111.86000000000004	681.81608	1069.81246	-288.86607	599.67789	1082.25415	-233.10886999999997	563.73524	1144.2898	-191.86696999999998	20.102540000000012	1230.97842	166.4651900000001	351.82332	985.48546	158.11313000000004	362.13379	991.7063	79.08537000000003	381.25713	1026.15135	122.05527000000002	6.62404999999999	1225.21837	-169.28760999999992	264.15549	904.44168	-203.90545999999998	278.55559	899.54564	-125.39609999999996	304.36058	932.37788	-166.06198999999998	402.16608	945.74117	119.57846000000004	232.59047	559.70321	144.46183	236.56489	559.47281	77.70296000000002	292.8405	844.76765	-163.64276999999998	-18.259330000000002	570.12888	-84.96060999999997	1.4976099999999988	574.16091	-21.196949999999966	183.05411	486.89629	72.51892000000001	353.78173	471.63218	49.88196000000001	341.85845	440.29755	124.30169000000001	370.71625	452.16324	87.95583	222.62559	480.38744	76.09014000000002	452.56644	436.95673	94.63748	-81.21658	529.57819	-4.953639999999962	62.55405	433.84631	-13.536099999999976	25.056179999999998	417.77579	-84.26939999999998	61.57484	411.78535	-53.856389999999976	-50.74596	505.50122	-15.667309999999967	123.84089	360.29058	-75.16853999999998	
593	9.867	0.0	1249.98655	7.653960137173716E-14	96.88389000000001	1335.06236	130.4073300000001	88.87743999999999	1321.41106	-143.5978299999999	71.13651	1411.55571	103.39274000000009	64.51245999999999	1400.32363	-122.80407999999991	-68.60209	1212.83429	60.59563000000008	-71.88531	1207.18945	-52.53157999999992	-59.50123	1289.27003	-0.23039999999991742	4.49283	1376.18906	-6.393649999999916	76.20535	1472.20894	-14.860909999999915	143.13703	1559.18557	-23.21296999999991	413.51336	1584.12655	-38.24666999999993	295.60532	1693.27933	-39.91708999999992	218.30556	1637.81013	-32.083429999999915	311.21503	1504.00437	-27.417799999999925	342.72245	1725.30516	-43.48830999999991	592.76585	1819.88503	-88.01342999999993	524.39416	1766.54705	1.900810000000076	495.93955	1760.15341	-139.5081999999999	478.88983	1810.49617	-64.62765999999992	348.9433	1734.63642	165.14038000000008	328.72555	1698.34816	-254.1330199999999	432.9823	1444.09994	162.20276000000007	413.34056	1437.30309	105.29355000000005	416.45098	1413.80213	-226.31201999999993	404.4125	1413.91733	-166.92599999999993	516.0421	1201.71741	108.97998000000004	565.52085	1222.33835	114.27922000000004	396.34844	1436.61189	133.80576000000005	515.46609	1179.02284	-180.57728999999995	562.69843	1201.199	-193.88298999999995	384.19475	1408.61809	-192.67337999999995	698.8082	1093.48623	185.07013	606.82035	1106.15832	147.97546000000003	564.08084	1167.56036	112.55121000000004	681.24008	1071.71328	-288.17486	599.15949	1084.15496	-232.47525999999996	563.10163	1146.19061	-191.29096999999996	19.12334000000001	1228.156	166.11959000000007	334.6584	962.27249	153.85070000000002	345.37207	969.01174	74.88054000000004	366.62663	1001.55597	118.31125000000003	6.68164999999999	1227.75279	-169.69081999999992	282.18442	923.16181	-211.22070999999997	297.21813	917.68977	-132.88414999999998	320.8343	952.71082	-173.08923999999996	387.07477	924.60182	116.35283000000003	232.82087	532.22781	141.63941	237.6593	531.70941	74.93814000000002	308.56541	863.19978	-169.86361999999997	-11.577680000000006	600.1963	-87.95582999999996	8.121659999999999	604.63153	-24.192169999999965	182.76611	459.59369	70.27250000000001	353.14813	442.83197	46.137930000000004	341.57045	411.61255	120.73046000000001	370.19785	423.24783	84.0966	222.33759	452.73924	73.55573000000001	452.04804	407.29252	90.14465	-75.85974	564.08084	-5.932839999999961	63.64846	462.24331	-13.363299999999976	24.652979999999996	445.71199	-83.11739999999998	61.28684	439.03034	-52.992379999999976	-46.54113	538.44866	-16.243319999999965	121.13367	384.48275	-73.44052999999998	
594	9.883	0.0	1249.98655	7.653960137173716E-14	97.80550000000001	1334.37116	130.11933000000008	87.55262999999998	1322.50547	-143.8858299999999	71.71251	1411.03731	103.79594000000009	63.24524999999999	1401.18763	-122.40087999999992	-68.02609	1212.31588	60.94124000000008	-72.23092	1207.41985	-52.18596999999992	-59.55883	1289.15483	0.5184000000000826	4.20483	1376.18906	-5.644839999999916	75.57174	1472.49695	-14.284899999999915	142.15782	1559.64637	-22.92495999999991	412.30375	1585.68176	-40.43548999999993	293.99251	1694.31613	-40.60828999999991	216.98075	1638.55893	-32.198629999999916	310.35102	1505.09878	-28.857809999999926	340.93684	1726.57237	-44.69791999999992	590.92263	1821.44024	-89.74143999999993	522.43574	1768.27506	0.17280000000007628	494.21154	1761.53582	-141.29380999999992	477.04662	1812.05138	-66.52847999999992	348.25209	1735.38523	164.2187800000001	325.61513	1700.01858	-255.05462999999992	432.6943	1444.73355	161.91476000000006	413.11016	1437.8215	104.94795000000006	414.83817	1415.76054	-226.71521999999993	403.08769	1416.04854	-167.27159999999995	516.0421	1202.35101	109.49838000000004	565.52085	1223.02956	114.85522000000005	396.11804	1437.18789	133.40256000000005	514.48688	1181.32686	-180.17408999999995	561.66162	1203.50302	-193.59498999999994	382.75474	1410.6341	-193.01897999999994	698.86581	1094.11984	185.58853	606.82035	1106.84953	148.43626000000003	564.08084	1168.19397	113.06961000000004	680.37607	1074.01729	-287.71406	598.23788	1086.45898	-231.95685999999998	562.12243	1148.55223	-190.88776999999996	18.31693000000001	1225.79438	165.8315900000001	314.78625	939.00192	149.93387000000004	325.67273	945.74117	70.96371000000005	349.2313	976.32699	114.62482000000003	6.393649999999989	1230.17201	-170.0364199999999	299.98295	944.07076	-218.42075999999997	315.99586	938.36832	-140.31459999999998	337.07761	975.40539	-180.11648999999997	369.27624	902.48326	113.06961000000003	228.27043	505.04042	136.39778000000004	234.14568	504.63721	69.81170000000002	325.21193	884.05113	-176.08445999999998	-1.6704100000000057	629.68771	-93.25506999999996	17.568129999999996	634.58374	-29.433809999999962	177.29407	433.61591	65.31887000000002	347.27289	413.68616	40.49309000000001	335.4648	382.69714	115.14322000000001	364.14981	393.81402	78.39416	216.75035	426.07025	68.42929000000001	445.65439	376.30349	84.0966	-66.70128	598.18028	-9.21606999999996	69.06289	491.27392	-15.091309999999973	28.569799999999997	473.99379	-83.86619999999998	65.37647	466.96654	-53.97158999999998	-38.41948	571.22329	-19.065739999999963	122.91928	409.71173	-73.38292999999999	
595	9.9	0.0	1249.98655	7.653960137173716E-14	98.78471000000002	1333.85275	129.77373000000009	86.11261999999999	1323.48468	-144.2314299999999	72.28852	1410.5765	104.08395000000009	61.86283999999999	1401.99404	-122.11286999999992	-67.39248	1211.85508	61.286840000000076	-72.63412	1207.59265	-51.78276999999992	-59.61643	1289.03963	1.2672100000000823	3.9168299999999996	1376.18906	-5.0112399999999155	74.93814	1472.72735	-13.881699999999915	141.17861	1560.10717	-22.809759999999912	411.15174	1587.00657	-42.509099999999926	292.43729	1695.29534	-41.41469999999992	215.71354	1639.25014	-32.48662999999991	309.54462	1506.07799	-30.240219999999926	339.26643	1727.72437	-45.907529999999916	589.19462	1822.88025	-91.46945999999993	520.59253	1769.83028	-1.5552099999999236	492.59873	1762.80302	-143.0218199999999	475.261	1813.43379	-68.42928999999991	347.61849	1736.19163	163.1819700000001	322.85031	1701.22818	-256.0914299999999	432.1759	1445.25195	161.68436000000005	412.59175	1438.2247	104.77515000000005	413.28296	1417.37335	-227.06082999999995	401.76288	1417.83415	-167.55959999999993	515.75409	1202.86941	109.95919000000005	565.17525	1223.54796	115.37363000000005	395.59963	1437.6487	133.17215000000004	513.33488	1183.22767	-179.77088999999995	560.45201	1205.40383	-193.30697999999995	381.31473	1412.30451	-193.30697999999995	698.5778	1094.58064	185.99173	606.53234	1107.31033	148.89707000000004	563.79284	1168.71237	113.58801000000004	679.28166	1075.91811	-287.19566	597.14348	1088.35979	-231.43845999999996	561.02802	1150.45304	-190.48455999999996	17.79853000000001	1224.00877	165.6011900000001	295.02931	918.84178	146.30505000000002	305.80059	925.17783	67.27728000000005	331.60557	954.03563	110.88079000000005	5.817639999999989	1232.24562	-170.32441999999992	316.11106	965.44051	-224.64160999999996	333.16079	959.85327	-146.70824999999996	351.53532	998.56075	-186.22212999999996	351.24732	882.43832	109.95919000000004	218.93917	481.88505	131.55934000000002	225.62082	481.71225	65.03087000000001	340.87924	905.42088	-181.67169999999996	10.022469999999995	656.1839	-99.24550999999995	28.685009999999995	661.48314	-35.251449999999956	166.46519	412.07335	60.250030000000024	335.8104	387.76598	35.13625	323.31112	356.83456	109.67119000000001	352.22652	367.31783	72.92212	205.74867	403.43329	63.30285000000001	433.2127	347.67609	78.39415999999999	-55.354	627.38369	-13.708899999999957	78.50936	518.05811	-18.37452999999997	37.152269999999994	499.97158	-86.40061999999998	74.07413	492.94433	-56.62120999999998	-27.6482	599.7355	-23.212969999999963	130.46493	434.24951	-75.28373999999998	
